<svg xmlns="http://www.w3.org/2000/svg" fill="none" stroke-linecap="square" stroke-miterlimit="10" viewBox="0 0 348 348"><path d="M5.08 5.78v337.67h336.91V5.78Zm233.7 70.25c7.02-.09 15 5.16 20.53 17.68a67.8 67.8 0 0 0 3.88 7.4c30.35 1.72 33.53 28.65 10.78 35.33 4.5 4.2 5.38 7.37-2.86 7.94-1.13 5.19-3.17 9.26-5.73 12.19.42 1.16.9 2.47 1.56 4.16.07.18.02 1.15-.05 2.1.5 1.73.8 3.23.74 5.34v4.62c0 1.87-.03 3.74.05 5.61-.02 1.04-.02 1.47-.04 1.91.6 2.24.76 3.96.75 6.94.02 1.27.06 2.05 0 3.36l-.1 1.08c.27.88.54 1.78.82 2.77.23.8-.22 1.78 0 2.58v19.77c0 1.33-.02 2.66 0 4 .02 1.4.04 2.79 0 4.18.53 1.17.73 2.2.73 4.47a52.6 52.6 0 0 1-.02 4.08c.5 1.68.8 3.09.75 5.13.01.87.03 1.74.03 2.62.06.2.1.4.14.6.07.39.12.79.18 1.19.18.8.35 1.57.37 1.88-.05-.15-.1-.3-.17-.45l.05.42c-.06-.2-.14-.4-.22-.6l-.3-.61c.15.4.31.8.5 1.19l.02.03c.1.17.14.18.12.02a25.35 25.35 0 0 1 1.54 9.22c0 .52 0 1.04-.02 1.57.37.74.54 1.04.66 1.39l-.5-.45v.02l.5.44c.08.22.2.63.34 1.2l.15.3c.3.25.58.52.84.8.21.22.5.67.75 1.1 1.3.62 2.57 3.48 3.9 9.76 1.96 9.15-2.83-9.05-2.71-6.66.03.81.57 1.52.85 2.28-.79 4.8-1.14 9.7-2.36 14.42-.27 1.04-1.85 3.6-2.03 2.53-1.02-6.23-1.32-12.54-1.62-18.86-5.46 9.83-12.82 35.17-27.57 16.42-.32-.4-.68-1.12-1.03-1.89-1.48-1.91-3.78-5.02-2.99-5.43l.04-.02c-.26-.76-.49-1.5-.7-2.23-.23-.4-.6-1.16-.74-1.54-.71-1.95-1.15-4-1.9-5.95 1.27 4.51 1.51 4.94.19 1.45-1-4.6-1.1-3.79-1.06-8.2 0-.2.05-.56.08-.88-.18-.55-.32-1.18-.44-1.94-2.44-3.8-2-7.78-1.74-11.87.03-.3.02-.6.02-.9-.15-.46-.29-.92-.4-1.4-.36-1.69-.36-3.44-.54-5.16l.13-1.64c-.72-2-.57-4.2-.87-6.3.32-4.48.25-2 .19-4.97-.03-1.59 0-3.17 0-4.76V198l-.34-.9a20.45 20.45 0 0 1-.44-7.1 19.5 19.5 0 0 1-.63-2.16 6 6 0 0 1 .02-3.31c-.1-.82-.18-1.75-.27-3-.13-1.6.2-2.39.3-3.7-.06.34-.03.16-.07.56-.1-1.92-.06-3.84-.05-5.76v-2.52c-.52-1.48-.52-2.12-.76-4.76a15 15 0 0 1-.37-.93l-.38-.53c-.42-.55-.77-1.15-1.08-1.77-.7-1.4-1.45-2.78-1.96-4.26a39.6 39.6 0 0 1-.94-3.5c-.41-.69-.85-1.5-1.26-2.34a9.82 9.82 0 0 1-.51-.57l-.13-.15-.15-.2-.5-.67c-.42-.49-.39-1.3-.94-1.7-1.64-1.18-1.1-1.41.18-1.35a6.55 6.55 0 0 1-.5-1.65c-3.4-.18-7.32-2.52-10.66-7.82l-2.18-3.44-.21-.32c-.67-.54-1.3-1.13-1.98-1.62.2.2.9.67.6.61-.37-.06-.63-.43-.94-.67a33.09 33.09 0 0 1-3.67-3.46l-1.74-1.63c-1-.28-1.98-.58-2.83-1.15-.18-.11-.4-.33-.65-.56l-.14-.08-.24-.19c-1.84-.63-3.69-1.25-5.5-1.95.58.43 1.15.87 1.79 1.18.4.2 1.88.47 2.88.64l-5.15-.81c-1.4-.36-.69-.19-2.43-.8l-.9-.2c.12.02.27.02.41.03-.24-.09-.53-.36-.73-.2-.06.04-.06.07-.03.1-1.69-.34-3.39-.66-5.02-1.2l.1.05c.78.4 3.4.84 2.54.7-2.06-.33-2.77-.58-4.25-1.07a37.05 37.05 0 0 0-2.32-1.22c.2.35-1.02-.47 0 0-.13-.21-1.04-1.03-3.36-2.85l.17.27-.26-.15c.11.15.22.3.32.47.16.28-.35-.27-.75-.75-1.65-1.15-2.77-3.06-3.49-5l-.38-.33.37.29-.05-.1-.69-.6.03.04-.04-.04-.2-.16-.02-.04a2.53 2.53 0 0 1-1.1-.72l.17.19c.2.24-.85-.78-.67-.63-.23-.08-.4-.2-.68-.49l-.47-.36.4.28-.2-.2-.49-.4.04.04-.06-.07-.33-.27c-.08-.07-.25-.31-.18-.25.19.16.34.35.5.52l.03.02-.87-1 .2.25c.07.1-.33-.38-.24-.29l.04.04c-.1-.1-.18-.22-.27-.33-.26-.37-.3-.43-.25-.4l-.63-.24c-4.42-1.67-4.05-5.5-1.14-6.27a2.68 2.68 0 0 1 2.37-1.03 5.9 5.9 0 0 1 3.11 1.26c.93.27 1.93.6 3.01 1 .16-2.2 1.3-3.42 2.6-3.53 1.55-.14 3.3 1.28 3.75 4.39.08.55.13 1.16.28 1.73a46.8 46.8 0 0 0 5 1.74c-1.32-2.14-.5-4.2 1.32-4.62-5.36-7.4-1.93-5.53-9.76-6.99 1.03-.07 1.95-.18 2.88-.15a8.2 8.2 0 0 1 2.93.6c1.43.58 2.61 1.64 3.91 2.5l-.12-.2c-.11-.2.69.56.5.45l-.38-.26c.9 1.53 1.84 3.03 2.8 4.52.41.21.85.47 1.3.82l.3.22c-2.06-8.1 7.85-1.04 14.64 2.4.74-3.3 1.92-5.7 4.21-5.16-.76-1.95-1-2.52-3.4-4l-3.5-.57c1.09.2 2.2.28 3.3.44l-.29-.18c-.63-.17-1.37-.37-2.03-.59-.16-.05-.15-.06-.05-.05.32.03 1.52.3 1.94.55l.14.1c.55.14.95.25 1.17.32a9.4 9.4 0 0 1 1.66.47c2.74 1.1 2.96 2.48 4.62 3.94 1.4.85 2.2 1.32 2.57 1.77 2.25.33 4.74.85 7.3 1.43a18.1 18.1 0 0 1 1.75-9.13c.13-11.7 7.04-19.17 15.29-19.28zm-70.01 34.95-.31-.34-.13-.07.06.07.38.34zm-.38-.34-.04-.03.08.07-.04-.04zm-.04-.03-.06-.07h-.01l.07.07zm1.74 1.3h.01l-.17-.19h-.01l.17.18zm4.25 5.73c.14.1.28.2.43.28a9.44 9.44 0 0 0-.39-.5l-.41-.32c-.2-.15.06.18.37.54zm97.24 146.38c.83-1.5 1.62-2.64 2.38-3.2-.18-.59-.34-1.08-.58-1.78l-.71-.72-.01.1v-.1l-1.49-1.49c.16 2.4.29 4.8.4 7.2zm-.4-7.19-.03-.38a27 27 0 0 1-1.64-1.32l1.66 1.7zm-.03-.38 1.48 1.11c0-.2-.02-.35-.03-.5l-.92-1.43-.62-.5.09 1.32zm.53-.82.4.32.2.2-.02-.05-.62-.53.04.06zm-.04-.06-.1-.17-.5-.44.01.12.6.5zm-.1-.17.69.63-.14-.35c-.37-.85-2.16-3-1.7-2.2.36.65.75 1.29 1.14 1.92zm.69.63.03.07.22.2-.01-.06-.24-.21zm.05.12.32.79-.03-.34-.06-.23c-.08-.1-.16-.15-.23-.22zm.32.79v.11l.1.15-.1-.26zm.03.62.03.45v.31c.04-.22.06-.45.07-.68l-.1-.08zm.1.08.21.16-.18-.45c0 .1-.02.2-.03.29zm.21.16.44 1.24.72.72-.13-.68-.66-.98-.37-.3zm.37.3.56.46-.06-.2c-.23-.43-.5-.9-.8-1.3l.01.01c-.02.46-.11.4-.25.08v.14l.54.81zm.79 1.66.16.86c.18-.1.35-.15.53-.18l-.7-.68zm.16.86-.3.2c.8 2.6.94 3.26.3-.2zm-3.08-15.67c.22 1.87.4 3.75.68 5.62.06.4.07-.8.02-1.2-.22-1.47-.24-3.01-.7-4.42zm-.06-.44-.2-1.43c-.11-.5-.24-1.04-.29-1.34l-.02-.06c0 .53-.01 1.05-.03 1.57.2.42.37.83.54 1.26zM100.32 88.73c4.54-.16 11.6 3.97 15.75 6.34 3.36 1.92 3.47 6.92 5.2 10.38 4.62 9.18 2.47 10.92-2.62 9.45-.51.12-1.06.2-1.7.2h-.89c-.47 0-.94 0-1.41.02a9.8 9.8 0 0 1-1-.06c-.04 0-.17.01-.13-.02.19-.17.6.08.71-.27.77-.58.48-.35-.83.19a50.67 50.67 0 0 1 .16 3.17c.03 1.26.06 1.84 0 3.2l-.04.37c.52 1.88.84 3.59.76 5.85v35.43l.01 4.39c0 .14.03 4.25-.13 2.38.19 1.66.35 3.36.31 5.04 1.1 3.36 1.5 7.48.93 12.29a12.2 12.2 0 0 1-1.84 8.47l-1.16 4.02-.38 1.21v.01c-.03.14-.08.28-.13.42.06.13 0 .34-.09.55.23.79.27 1.75.05 2.87l-.23 1.15-.22.93c.1-.32.17-.47-.04.17v.05c-.05.17.03.6-.12.5-.02-.01 0-.13.03-.27l-.33 1c.02.42.01.84 0 1.26 0-.43-.03-.74-.08-1l-.22.63-.02.05c.03 1.13.04 2.26-.05 3.41-.04.6-.12 1.18-.2 1.76-.03.26-.08 1-.11.76-.07-.61-.01-1.24-.02-1.85-.52 3.02-.38 6.24-1.57 9.08a19.57 19.57 0 0 1-3.85 5.92l-.29 1.5c.56-1.06-.45 3.05-.87 4.45l-.1.25-.11.51-.65 1.22c.04.83-.1 1.78-.5 2.85-.34.91-.68 1.81-1.1 2.69-.01.04-.01.12-.06.12h-.67l-.08.12-.15.51.26.04.06-.12-.06.12h.01l.3-.36-.28.37h-.02l-.02.03c-.33.66-.53 1.08-.55.99-.62 1.12-1.24 2.24-1.8 3.4-.29.56.66-1.09.98-1.63.14-.23.49-.96.39-.7a33.6 33.6 0 0 1-2.46 5.45l-.04.1c-.55.93-.36.6.04-.1l.65-2.39c-.95 1.95-3.48 6.77-4.53 8.91l-.16.17c-.47 1.29-.8 1.12-6.77 5.22-4.93 3.38-7.83 4.17-9.39 3.24-16.26 7.12-27.25-4.11-22.78-19.18-7.18-6.57-6.39-19.52 9.02-30.96.34-.66.69-1.31.99-1.99.18-.4-.41.76-.62 1.14l.75-1.43.03-.1c.3-.56 1.2-2.24.91-1.68-.3.6-.63 1.2-.94 1.78-.13.46-.37 1.2-.59 1.89l1.03-.76c.25-.56.5-1.13.73-1.7l.06-.47c.1-.6.27-1.17.47-1.74.05-.4.11-.78.18-1.17-.28.44-.44.69-.11.09l.13-.22c.08-.42.17-.82.34-1.21.14-.34.3-.67.46-1l.12-.5.29-.72.51-3.6 1.42-2.2c-.02 0-.05 0-.08-.02-1.67-.62 1.13-3.4 1.97-4.98a18.8 18.8 0 0 1 2.04-3.18c.12-.38.22-.76.36-1.13.23-.65 1.09-2.07 1.55-2.83l-.16.2.28-.42.1-.35c.19-.52.42-1.02.66-1.52a.57.57 0 0 1 0-.33c-.1-2.04.23-3.72.75-5.61-.08-1.46-.08-2.9-.03-4.38l.77-1.67c-.56-1.45-1.77-3-.06-4.14.01-.55.03-1.1.03-1.67-.02-1.49-.02-2.98-.01-4.48v-34.24l-.37-1.06c-.25-.99-.4-1.91-.47-2.82-9.27-8.65-6.35-27.24 12.3-32.92 1.73-.77 3.55-1.2 5.38-1.25h.38l1.13-.15 1.2-.13c.77-1.07 1.93-1.54 3.34-1.6zm-3.35 1.6c-.09.13-.18.27-.26.42 2.95.43 5.85 1.8 8.38 4.13-.5-1.8-.95-3.51-1.32-5.11-.12-.56-1.14.02-1.71.06-1.83.12-3.37.3-5.09.5zM77.4 169.05c-.03 1.37-.05 2.74.07 4.1l5.1-11.06c-1.4 2.13-3.05 4.11-4.07 6.44-.47.16-.82.34-1.1.52zm.07 4.1-.01.04.02.05v-.08zm-1.5 12.03.04.16-.02-.2-.02.04zm.04.16.05.52.04-.15a2.59 2.59 0 0 0-.09-.37zm.05.52-.04.17.05-.07v-.1zm-.04.17-.84 1.12a7.66 7.66 0 0 0-.57 2.65c.15-.13.3-.26.45-.37.37-1.27.71-2.45.96-3.4zm-.84 1.12c0-.02 0-.03.02-.05l-.1.17.08-.12zm-7.86 18.06-.09.61c.32-.56.65-1.12 1-1.67.06-.51.13-1 .21-1.5a64.74 64.74 0 0 0-1.12 2.56zm1.12-2.56c1.45-3.12 3.07-6.26 1.21-1.31.17-.17.28-.25.18-.04-.17.37-.38.73-.58 1.1-.33.85-.7 1.82-1.2 3.05-.15 1.4-.16 2.3.15 1.37 2.15-6.37 2.7-8.96 2.7-10l-.17.28c-.23 1.32-.52 2.5-1.38 2.33a10.74 10.74 0 0 0-.91 3.22zm2.29-5.55.05-.26c-.36.59-.7 1.19-1.03 1.8l.98-1.54zm.05-.26.11-.2a.9.9 0 0 0-.03-.25l-.08.45zm.11-.2.01.19c.44-.7.89-1.39 1.32-2.09.14-.23-.41.36-.54.6l-.79 1.3zm-2.85 8.81c.04-.36.11-.77.17-1.19-.15.6-.29 1.2-.41 1.8l.24-.6zm-.24.6-.95 2.36c-.11.72-.21 1.44-.33 2.15-.04.28-.04-.57-.01-.85l.05-.57c-.39 1-.77 2.01-1.18 3.01-.04.38-.1.76-.14 1.25.3-.29.87-.71 1.35-1.04.44-2.09.78-4.2 1.2-6.3zm-1.21 6.3-.02.1.5-.36c.38-.3.01-.07-.48.27zm-.02.1-1.33.98c-.19 2.05-.28 4.56.15 3.36.5-1.41.87-2.87 1.18-4.34zm-1.33.98v-.03l-.07.07.07-.04zm4-11.04.41-1.05a5.6 5.6 0 0 0-1.1 1.63c-.12.38-.2.76-.3 1.14.34-.57.68-1.14 1-1.72zm-3.13 6.25-.02.13.59-.92.02-.18-.59.97zm26.9 48.04c.4-1.06.89-3.09 4.75-9.48l.08-.12.11-.43c-.18.05-.32-.17-.44-.64l-.03.02c-.4.78-.9 1.85-1.62 3.37l.02.07c.12.4-.19.74-.54 1.06l-3.24 7.02c-.19.4.5-.43.91-.87zm4.83-9.6-.14.52c.39-.8.56-1.2.14-.52zm2.1-3.61.52-.97-.38.48.21-.2c.1-.06-.08.1-.22.24l-.13.45zm3.62-9.1.97-4.7-.03.05c-.16.32-.2.44-.36.74-.1.46-.24.94-.45 1.45l-.35.81-.38.83v.05c.07-.07.12-.37.1-.28-.02.36-.08.72-.12 1.08l-.25.86c.06.25.1.5.1.78.3-.6.6-1.24.77-1.66zm110.18-131.53c-.05 0-.07 0-.02.03l.08.05.35.04a1.2 1.2 0 0 0-.41-.12zm-48.3 4.8c.16.15.62.72.1.03l-.1-.04zm2.87 2.91.01.01h.01l-.02-.01zm-56.14 6.52.82 2.78-.18-1.2-.64-1.58zm87.32 9.53c.22.26.4.47.31.3l-.22-.3h-.09zm.53.14.1.18c-.54-.02-.07.2.55.44l-.65-.62zm.77.67c1.02.39 2.45.83 1.99.64-.64-.26-1.32-.45-1.99-.64zm21.81 22.63c-.01 0 .44.38.82.8l-.04-.15a6.43 6.43 0 0 0-.78-.65zm2 2.61v.02l.02.01-.03-.03zm.05.12.02.03-.01-.02-.01-.01zm.25.45.08.15v-.05c-.02-.01-.05-.06-.02-.03l-.03-.04-.03-.03zm.06.07.01.01zm.01.01v.02l.07.09-.07-.1zm.02.08.12.22v-.02l-.12-.2zm40.77 5.62c.2.68.4 1.4.58 1.96-.15-1.18-.11-.86-.58-1.96zm-187.6 15.33c-.72 1.64-.7 1.38-.96 3.25.3-.96.62-2.07.96-3.25zm187.88 1.01c.33.95.66 1.9.9 2.65a7.92 7.92 0 0 0-.9-2.65zM77.6 179.37c-.2.42-.44.9-.54 1.18l-.02.09.47-1 .09-.27zm-.38 1.4-.3.47v.27c0 .12-.02-.02-.04-.2l-.08.1c-.3 1-.49 1.96-.59 2.94l.39-.66c.33-1.45.47-2.22.62-2.92zm.92 1.98c-.08.1-.16.21-.2.3l-.41.96.5-.7.1-.27v-.3zm187.74 1.3c.04.29.97 2.92 2.19 6.91-.14-1.02-.32-2.04-.48-3.07-1.26-2.9-1.74-4.05-1.7-3.83zm-189.4.07-.3.62c-.03.26-.04.53-.05.8l.36-1.42zm-.36 3.24-.7 1.79.53-.39a23 23 0 0 0 .17-1.4zm-1.24 4.5-.78 1.32-.1.34a3.9 3.9 0 0 0-.1.71 104 104 0 0 0 .98-2.38zm-2.82 3.22c.22-1.03-.98 3.77-.61 2.68l-.02.03c.2-.9.43-1.8.63-2.71zm-8.3 18.78c-.12.22-.32.65-.48 1l.11-.1.12-.08zm200.75 2.16c1.9 4.22 3.12 6.25 3.92 7.69-.53-3.2-.48-2.24-3.92-7.7zm-158.59 2.56-.1.22-.07.25c-.04.15.02 0 .1-.2h.01c.01-.07.08-.28.06-.27zm162.56 10.48c.32 1.14.61 2.13.87 2.97a12.1 12.1 0 0 0-.24-1.3 10.7 10.7 0 0 0-.63-1.67zm-204.64 0v.19l.05-.11-.05-.08zm203.77 4.75a2.6 2.6 0 0 0-.55.04c1.92 2.38 2.3 5.81 3.25 8.89l.09.17a65.4 65.4 0 0 0-.08-1.9c-.3-.7-.63-1.46-.35-1.09.12.16.22.34.3.52-.34-5.05-1.27-6.55-2.66-6.63zm-1.35 17.61c-.24-.06.19.52 1.7 2.11a6 6 0 0 1-.66-.98c-.27-.46.12-.29.78.17-.89-.7-1.61-1.24-1.82-1.3zm5.08.55.47 1.17-.08-.3-.39-.87zm-.2.14.32.71-.12-.4c-.05-.12-.25-.42-.2-.31zM250 261.66v.23c.82.43 1.63.88 2.44 1.3a11.65 11.65 0 0 0-2.44-1.53zm-11.94 4.7.12 1.1c.17.37.42.98.7 1.74-.2-.79-.32-1.31-.45-1.9-.13-.31-.26-.62-.37-.95zm10.82 17.19.02.36.17.31c.1.19.13.3.14.37 1.7 1.5 2.97 2.54 1.61.94-.6-.71-1.26-1.36-1.94-1.98z"/><path fill="#000" d="M133.84 15.67h74.33v56.88h-74.33z"/><path fill="#fff" d="M154.54 44.09c0-2.7.28-4.89.83-6.53a8.21 8.21 0 0 1 2.48-3.83 6.39 6.39 0 0 1 4.16-1.34c1.23 0 2.3.25 3.23.75.93.49 1.7 1.2 2.3 2.14.6.92 1.08 2.06 1.42 3.4.35 1.34.52 3.14.52 5.41 0 2.69-.28 4.86-.83 6.51a8.16 8.16 0 0 1-2.49 3.83 6.35 6.35 0 0 1-4.15 1.35c-2.21 0-3.95-.8-5.2-2.38-1.52-1.9-2.27-5-2.27-9.31zm2.89 0c0 3.76.44 6.26 1.31 7.51.89 1.25 1.98 1.87 3.27 1.87s2.37-.63 3.25-1.88c.88-1.25 1.33-3.75 1.33-7.5 0-3.77-.45-6.28-1.33-7.52-.88-1.24-1.97-1.86-3.28-1.86a3.6 3.6 0 0 0-3.1 1.65c-.97 1.4-1.45 3.97-1.45 7.73zm14.9 0c0-2.7.28-4.89.83-6.53a8.21 8.21 0 0 1 2.49-3.83 6.39 6.39 0 0 1 4.15-1.34c1.23 0 2.31.25 3.24.75.93.49 1.7 1.2 2.3 2.14.6.92 1.07 2.06 1.42 3.4.34 1.34.51 3.14.51 5.41 0 2.69-.27 4.86-.83 6.51a8.16 8.16 0 0 1-2.48 3.83 6.35 6.35 0 0 1-4.16 1.35 6.3 6.3 0 0 1-5.2-2.38c-1.5-1.9-2.26-5-2.26-9.31zm2.9 0c0 3.76.43 6.26 1.3 7.51.9 1.25 1.98 1.87 3.27 1.87 1.3 0 2.38-.63 3.25-1.88.89-1.25 1.33-3.75 1.33-7.5 0-3.77-.44-6.28-1.33-7.52-.87-1.24-1.97-1.86-3.28-1.86a3.6 3.6 0 0 0-3.09 1.65c-.97 1.4-1.45 3.97-1.45 7.73z"/><path stroke="#000" stroke-linecap="butt" stroke-linejoin="round" stroke-width="2" d="M15.26 17.7h109.9v54.84H15.25z"/><path d="m15.26 72.65 39.69-54.08"/><path stroke="#000" stroke-linecap="butt" stroke-linejoin="round" stroke-width="2" d="m15.26 72.65 39.69-54.08"/><path d="m37.57 72.65 39.68-54.08"/><path stroke="#000" stroke-linecap="butt" stroke-linejoin="round" stroke-width="2" d="m37.57 72.65 39.68-54.08"/><path d="m59.87 72.65 39.69-54.08"/><path stroke="#000" stroke-linecap="butt" stroke-linejoin="round" stroke-width="2" d="m59.87 72.65 39.69-54.08"/><path d="m82.17 72.65 39.69-54.08"/><path stroke="#000" stroke-linecap="butt" stroke-linejoin="round" stroke-width="2" d="m82.17 72.65 39.69-54.08m95-1.94h109.9v54.84h-109.9z"/><path d="m216.86 71.58 39.69-54.08"/><path stroke="#000" stroke-linecap="butt" stroke-linejoin="round" stroke-width="2" d="m216.86 71.58 39.69-54.08"/><path d="m239.17 71.58 39.68-54.08"/><path stroke="#000" stroke-linecap="butt" stroke-linejoin="round" stroke-width="2" d="m239.17 71.58 39.68-54.08"/><path d="m261.47 71.58 39.69-54.08"/><path stroke="#000" stroke-linecap="butt" stroke-linejoin="round" stroke-width="2" d="m261.47 71.58 39.69-54.08"/><path d="m283.78 71.58 39.68-54.08"/><path stroke="#000" stroke-linecap="butt" stroke-linejoin="round" stroke-width="2" d="m283.78 71.58 39.68-54.08"/><path stroke="#000" stroke-miterlimit="4" stroke-width="2.66" d="M75.87 295.74H271.2v37.79H75.87z"/><path fill="#000" stroke-width=".79" d="M95.22 308.92c0-.38-.4-.69-.85-.69h-.65c-.47 0-.85.3-.85.69v11.45c0 .38.38.68.85.68h.65c.45 0 .85-.3.85-.68zm1.5.51c0 .38.37.69.84.69h1.9v10.23c0 .38.38.68.85.68h.63c.47 0 .85-.3.85-.68v-10.23h1.92c.47 0 .84-.3.84-.69v-.53c0-.38-.37-.69-.84-.69h-6.15c-.47 0-.84.3-.84.69zm11.66-.51c0-.38-.37-.69-.84-.69h-.66c-.44 0-.82.3-.82.69v1.48c0 .38.38.69.82.69h.66c.47 0 .84-.3.84-.69zm.89 8.41c0 2.49 1.3 3.7 3.87 3.7 2.49 0 3.87-1.14 3.87-3.27 0-1.84-1.57-2.81-3.12-3.78h.03c-1.15-.73-2.3-1.47-2.3-2.44 0-.99.54-1.42 1.52-1.42 1.03 0 1.53.57 1.53 1.82v.27c0 .38.37.68.84.68h.66c.47 0 .84-.3.84-.68v-.27c0-2.41-1.34-3.73-3.87-3.73-2.48 0-3.87 1.24-3.87 3.39 0 1.88 1.62 2.91 3.17 3.9v-.02c1.15.72 2.23 1.43 2.23 2.32 0 1-.54 1.35-1.53 1.35-.33 0-.73-.04-.98-.25-.33-.22-.54-.66-.54-1.57v-.25c0-.38-.4-.69-.85-.69h-.65c-.47 0-.85.3-.85.69zm21.21 3.72c.47 0 .85-.3.85-.68v-11.45c0-.38-.38-.69-.85-.69h-.66c-.46 0-.84.3-.84.69v6.27l-3.26-6.54c-.1-.2-.47-.42-.77-.42h-.57c-.44 0-.84.3-.84.69v11.45c0 .38.4.68.84.68h.68c.45 0 .85-.3.85-.68v-6.28l3.26 6.54c.1.21.49.42.77.42zm2.7-3.72c0 1.5.52 2.37 1.24 2.96.78.61 1.76.76 2.6.76a4.2 4.2 0 0 0 2.63-.76c.73-.59 1.22-1.46 1.22-2.96v-5.39c0-2.41-1.26-3.7-3.84-3.7-2.56 0-3.85 1.3-3.85 3.7zm2.35-5.39c0-1.23.47-1.82 1.5-1.82 1 0 1.5.55 1.5 1.82v5.39c0 1.29-.52 1.84-1.5 1.84-1.01 0-1.5-.59-1.5-1.84zm7.08-2.51c0 .38.38.69.85.69h1.9v10.23c0 .38.37.68.84.68h.64c.46 0 .84-.3.84-.68v-10.23h1.92c.47 0 .85-.3.85-.69v-.53c0-.38-.38-.69-.85-.69h-6.14c-.47 0-.85.3-.85.69zm18.84 11.62c.36 0 .73-.24.82-.55l.78-4.22v4.09c0 .38.37.68.84.68h.66c.47 0 .84-.3.84-.68v-11.45c0-.38-.37-.69-.84-.69h-.7c-.36 0-.75.25-.82.54l-1.83 7.66-1.86-7.66c-.07-.29-.44-.54-.8-.54h-.7c-.47 0-.84.3-.84.69v11.45c0 .38.37.68.84.68h.66c.44 0 .84-.3.84-.68v-4.13l.8 4.28c.07.29.45.53.8.53zm7.94-12.42c-.1-.19-.5-.4-.78-.4h-.75c-.65 0-1.03.48-.77.95 1 1.9 2.04 3.79 3.05 5.7v5.49c0 .38.37.68.82.68h.66c.47 0 .84-.3.84-.68v-5.48l3.03-5.7c.23-.48-.14-.96-.78-.96h-.77c-.26 0-.66.21-.78.4l-1.87 3.5zm15.83 12.42c2.75 0 3.97-1.21 3.97-3.67 0-1.16-.4-2.13-1.01-2.74 0 0 1-.97 1-2.74 0-2.45-1.21-3.67-3.96-3.67h-2.32c-.47 0-.84.3-.84.69v11.45c0 .38.37.68.84.68zm0-10.93c1.15 0 1.62.51 1.62 1.78 0 1.28-.47 1.8-1.62 1.8h-.82v-3.58zm0 5.46c1.15 0 1.62.5 1.62 1.8 0 1.28-.47 1.79-1.62 1.79h-.82v-3.6zm8.02-6.66c0-.38-.4-.69-.85-.69h-.65c-.47 0-.85.3-.85.69v11.45c0 .38.38.68.85.68h.65c.45 0 .85-.3.85-.68zm9.14 8.25c0-.99-.32-1.77-1-2.36l.18-.15c.73-.59.99-1.54.99-2.72 0-2.55-1.01-3.73-3.9-3.73h-2.95c-.47 0-.84.3-.84.69v11.45c0 .38.37.68.84.68h.66c.44 0 .82-.3.82-.68v-4.66h1.05c1.15 0 1.8.53 1.8 1.48v3.18c0 .38.38.68.85.68h.66c.47 0 .84-.3.84-.68zm-5.2-7.05h1.48c1.21 0 1.57.53 1.57 1.82 0 1.3-.68 1.83-2 1.83h-1.05zm6.9-.69c0 .38.38.69.85.69h1.9v10.23c0 .38.37.68.84.68h.63c.47 0 .85-.3.85-.68v-10.23h1.92c.47 0 .85-.3.85-.69v-.53c0-.38-.38-.69-.85-.69h-6.14c-.47 0-.85.3-.85.69zm10.92 4.28v-4.8c0-.37-.38-.68-.85-.68h-.66c-.46 0-.84.3-.84.69v11.45c0 .38.38.68.84.68h.66c.47 0 .85-.3.85-.68v-4.78h2.6v4.78c0 .38.37.68.84.68h.66c.47 0 .84-.3.84-.68v-11.45c0-.38-.37-.69-.84-.69h-.66c-.47 0-.84.3-.84.69v4.8zm10.19 7.34c2.81 0 4.12-1.29 4.12-3.76v-5.3c0-2.46-1.31-3.76-4.12-3.76h-2.4c-.47 0-.84.3-.84.69v11.45c0 .38.37.68.84.68zm0-10.93c1.24 0 1.75.6 1.75 1.88v5.29c0 1.27-.51 1.88-1.75 1.88h-.92v-9.05zm10.97 10.4c.1.29.47.53.82.53h.68c.56 0 .94-.4.82-.83l-3.23-11.45c-.08-.29-.47-.54-.83-.54h-.51c-.35 0-.73.25-.82.54l-2.14 7.43-1.12 4.04c-.12.43.26.81.82.81h.68c.35 0 .73-.24.82-.53l.82-2.97h2.4zm-2-7.9c.45 1.62.4 2.14.66 3.05h-1.31zm5.35-3.99c-.09-.19-.49-.4-.77-.4h-.75c-.66 0-1.03.48-.77.95 1 1.9 2.04 3.79 3.04 5.7v5.49c0 .38.38.68.83.68h.65c.47 0 .85-.3.85-.68v-5.48l3.02-5.7c.24-.48-.14-.96-.77-.96h-.78c-.25 0-.65.21-.77.4l-1.88 3.5zm14.69.27c0-.38-.38-.69-.85-.69h-.65c-.45 0-.82.3-.82.69v8.84c0 .37.37.69.82.69h.65c.47 0 .85-.32.85-.69zm-1.5 10.04c-.45 0-.82.3-.82.69v.72c0 .38.37.68.82.68h.65c.47 0 .85-.3.85-.68v-.72c0-.38-.38-.69-.85-.69z" aria-label="It's not my birthday !"/><path fill="#000" d="M164.04 107.27a8.77 8.77 0 0 0-2.57.26h-39.21c4.04 5.42.04 8.68-4.41 7.51-.3.03-.58.06-.9.06h-.89c-.47 0-.94 0-1.41.02a9.8 9.8 0 0 1-1-.06c-.04 0-.17.01-.13-.02.19-.17.6.08.71-.27.75-.56.5-.37-.71.14-.94 3.4 1.38 11.17.76 15.43-.02 13.28.04 26.57-.03 39.85.24 6.26 3.3 17.03-.2 24.5a37.71 37.71 0 0 0-2.13 6.45l-.03.08c-.04.14-.07.28-.12.41.25.82.32 1.82.08 3l-.23 1.15-.22.93c.1-.32.17-.47-.04.17v.05c-.05.17.03.6-.12.5-.02-.01 0-.13.03-.27l-.33 1c.02.42.01.84 0 1.26 0-.43-.03-.74-.08-1l-.22.63a91.82 91.82 0 0 0-.38 5.98c-.32-3.35-.35 8.6-3.3 10.44-3.26 2.7-2.18 7.4-4.15 10.79.02.8-.13 1.7-.5 2.7-.35.91-.69 1.81-1.1 2.69-.02.04-.02.12-.07.12h-.66c-.02.01-.02.03-.03.05l-.19.59.25.03.3-.36-.28.37h-.02l-.43.53.21-.2c.1-.06-.08.1-.22.24-.17.52-.39 1.08-1.19 2.54.06.82-1.21 6.78-.55 8.8v30.12h149.5c-5.57-4.82-8.32-11.3-10.18-18.13l-.32-1.05c-1.44-7.82-3.96-15.34-3.6-23.36-1.34-8.3-1.7-16.68-1.48-25.13-.3-6.54.54-13.28-.34-19.7-.1-2.49-.32-4.96-.54-7.43a20 20 0 0 1-.53-1.84 5.84 5.84 0 0 1 .1-3.57 55.33 55.33 0 0 1-.05-6.44c.38-4.95-.54-14.3-4.67-19.97a86.46 86.46 0 0 0-1.61-5.01l.05.03-.03-.07-.25-.37a3.47 3.47 0 0 1-.32-.38l-.55-.6-.13-.16-.15-.2-.5-.67c-.42-.49-.39-1.3-.94-1.7-1.56-1.13-1.15-1.4 0-1.36a12.06 12.06 0 0 0-6.9-4.58c-4.74-4.7-6.31-9.7-10.7-11.98-1.13-1.81-3.84-3.56-6.4-4.82l-.09-.05c-2.65-1.3-5.13-2.08-5.5-1.86 7.78 2.82-5.66-1.09-8.81-1.52-3.59-.98 4.85 1.34-.94-.1-3.96-1.5-5.86-2.66-7.71-4.55.17.04-.44-.56-.68-.73a73.4 73.4 0 0 1-2.68-3.27c-.14-.42-.3-.82-.46-1.2l-.45-.4c.09.09.27.22.43.34l-.04-.1-.76-.64.03.03-.04-.04-.2-.16-.02-.04a2.53 2.53 0 0 1-1.1-.72l.17.19c.2.24-.85-.78-.67-.63-.23-.08-.4-.2-.68-.49l-.47-.36.4.28-.2-.2-.49-.4.04.04-.06-.07-.33-.27c-.08-.07-.25-.31-.18-.25.19.16.34.35.5.52l.03.02-.87-1 .2.25c.07.1-.33-.38-.24-.29l.04.04c-.1-.1-.18-.22-.27-.33-.26-.37-.3-.43-.25-.4l-.63-.24-.16-.06a6 6 0 0 0-.61-.06zm4.73 3.7-.31-.33-.13-.07.06.07.38.34zm-.38-.33-.04-.03.08.07-.04-.04zm-.04-.03-.06-.07h-.01l.07.07zm1.74 1.3h.01l-.17-.19h-.01l.17.18zm54.29 40.53v.01l-.04-.06.04.05zm0 .01s.19.27.3.39l-.01-.05c-.02-.04-.09-.08-.07-.12l-.21-.22zm-125.5 93.11c-.02-.25-.16-.02-.55 1.02l.55-1.02zm66.56-137.93c.16.16.62.73.1.04l-.1-.04zm2.87 2.92.01.01h.01l-.02-.01zm-56.14 6.52c.7 3.16 1.64 4.26 0 0zm87.25 9.51c.45.68.44.38.23.04l-.23-.04zm.6.16c-.56.47 1.82 1.12 0 0zm.77.67c2.94 1.1 1.65.4 0 0zm21.81 22.63c-.01 0 .44.38.82.8l-.04-.15a6.43 6.43 0 0 0-.78-.65zm2.29 3.17.1.16-.02-.05c0-.01-.04-.05 0-.03l-.04-.04-.04-.04zm.07.08.01.01zm.01.01v.02l.07.09-.07-.1zm.01.07.06.27c.07.11.09.07.07-.06l-.13-.21zm-119.05 65.21c-.37.77-.05.45 0 0zm-1.78 11.85c-.1.47-.24.96-.46 1.48l-.35.81-.38.83v.05c.07-.07.12-.37.1-.28-.02.37-.08.72-.12 1.08l-.25.86c.06.25.1.51.11.8 1.11-2.44 1.8-5.77 1.35-5.63zm133.91 35.92c.27 2.48 1.67 4.73 0 0z"/><ellipse cx="195.51" cy="169.72" fill="#000" rx="27.37" ry="43.62"/><ellipse cx="203.33" cy="173.76" fill="#000" rx="27.37" ry="43.62"/><path stroke="#000" stroke-miterlimit="4" stroke-width="1.9" d="M5.54 5.17h336.91v337.67H5.54z"/></svg>